<?xml version="1.0" encoding="UTF-8"?>
<!DOCTYPE svg PUBLIC "-//W3C//DTD SVG 1.1//EN" "http://www.w3.org/Graphics/SVG/1.1/DTD/svg11.dtd">
<svg xmlns="http://www.w3.org/2000/svg" version="1.1" width="346px" height="31px" style="shape-rendering:geometricPrecision; text-rendering:geometricPrecision; image-rendering:optimizeQuality; fill-rule:evenodd; clip-rule:evenodd" xmlns:xlink="http://www.w3.org/1999/xlink">
<g><path style="opacity:0.847" fill="#000000" d="M 171.5,-0.5 C 171.833,-0.5 172.167,-0.5 172.5,-0.5C 172.5,9.83333 172.5,20.1667 172.5,30.5C 172.167,30.5 171.833,30.5 171.5,30.5C 165.896,27.361 160.229,24.1943 154.5,21C 157.91,16.5106 161.243,16.1772 164.5,20C 165.332,20.6877 165.998,20.521 166.5,19.5C 164.889,16.6128 163.556,13.6128 162.5,10.5C 165.113,6.54983 168.113,2.88317 171.5,-0.5 Z"/></g>
<g><path style="opacity:0.782" fill="#000000" d="M 174.5,-0.5 C 175.167,-0.5 175.833,-0.5 176.5,-0.5C 179.855,2.85697 182.855,6.52363 185.5,10.5C 183.423,13.6245 182.257,16.9578 182,20.5C 183.667,19.1667 185.333,17.8333 187,16.5C 189.167,18 191.333,19.5 193.5,21C 187.597,24.4505 181.597,27.6172 175.5,30.5C 175.167,30.5 174.833,30.5 174.5,30.5C 174.5,20.1667 174.5,9.83333 174.5,-0.5 Z"/></g>
<g><path style="opacity:0.701" fill="#000000" d="M -0.5,17.5 C -0.5,17.1667 -0.5,16.8333 -0.5,16.5C 1.74571,15.5448 4.07905,14.8782 6.5,14.5C 6.66212,16.5273 6.49546,18.5273 6,20.5C 3.77875,19.5941 1.61208,18.5941 -0.5,17.5 Z"/></g>
<g><path style="opacity:0.806" fill="#000000" d="M 9.5,15.5 C 58.665,14.335 107.998,14.1684 157.5,15C 155.668,15.7485 154.001,16.7485 152.5,18C 146.333,18.1667 140.167,18.3333 134,18.5C 92.5062,17.1761 51.0062,16.1761 9.5,15.5 Z"/></g>
<g><path style="opacity:0.81" fill="#000000" d="M 191.5,15.5 C 240.332,14.335 289.332,14.1684 338.5,15C 291.174,16.6665 243.84,17.6665 196.5,18C 194.807,17.1534 193.14,16.3201 191.5,15.5 Z"/></g>
<g><path style="opacity:0.687" fill="#000000" d="M 345.5,15.5 C 345.5,16.8333 345.5,18.1667 345.5,19.5C 344.178,19.33 343.011,19.6634 342,20.5C 341.505,18.5273 341.338,16.5273 341.5,14.5C 342.959,14.4326 344.292,14.7659 345.5,15.5 Z"/></g>
<g><path style="opacity:0.503" fill="#000000" d="M 8.5,16.5 C 27.1936,17.3344 45.8602,18.5011 64.5,20C 45.8333,20.6667 27.1667,20.6667 8.5,20C 7.3157,18.8545 7.3157,17.6879 8.5,16.5 Z"/></g>
<g><path style="opacity:0.5" fill="#000000" d="M 334.5,16.5 C 336.5,16.5 338.5,16.5 340.5,16.5C 340.5,17.8333 340.5,19.1667 340.5,20.5C 321.497,20.6666 302.497,20.4999 283.5,20C 300.632,18.6927 317.632,17.5261 334.5,16.5 Z"/></g>
</svg>
